<svg width="160" height="158" viewBox="0 0 160 158" fill="none" xmlns="http://www.w3.org/2000/svg">
<ellipse cx="80" cy="78.9189" rx="80" ry="78.9189" fill="#F0F4FF"/>
<circle cx="80" cy="70.6307" r="22.3423" fill="#2B6EFF" fill-opacity="0.3"/>
<path fill-rule="evenodd" clip-rule="evenodd" d="M42.5225 148.66L42.5225 141.622C42.5225 120.724 59.4631 103.784 80.3604 103.784C101.258 103.784 118.198 120.724 118.198 141.622V148.278C106.885 154.354 93.92 157.815 80.1377 157.838C79.862 157.837 79.5866 157.836 79.3114 157.835C66.0258 157.724 53.5125 154.419 42.5225 148.66Z" fill="#0E4FDA"/>
<path d="M78.8186 119.007C79.4173 117.165 82.0241 117.165 82.6228 119.007L84.317 124.221C84.5847 125.045 85.3526 125.603 86.2191 125.603H91.7015C93.6389 125.603 94.4445 128.082 92.8771 129.221L88.4417 132.444C87.7407 132.953 87.4474 133.856 87.7152 134.68L89.4093 139.894C90.008 141.736 87.8991 143.269 86.3316 142.13L81.8963 138.907C81.1953 138.398 80.2461 138.398 79.5451 138.907L75.1098 142.13C73.5424 143.269 71.4334 141.736 72.0321 139.894L73.7263 134.68C73.994 133.856 73.7007 132.953 72.9997 132.444L68.5644 129.221C66.9969 128.082 67.8025 125.603 69.7399 125.603H75.2223C76.0888 125.603 76.8567 125.045 77.1244 124.221L78.8186 119.007Z" fill="#EEB511"/>
</svg>
